<svg xmlns="http://www.w3.org/2000/svg" viewBox="0 0 20 14">
  <rect width="20" height="14" fill="#B22234"/>
  <rect y="1.077" width="20" height="1.077" fill="#fff"/>
  <rect y="2.154" width="20" height="1.077" fill="#B22234"/>
  <rect y="3.231" width="20" height="1.077" fill="#fff"/>
  <rect y="4.308" width="20" height="1.077" fill="#B22234"/>
  <rect y="5.385" width="20" height="1.077" fill="#fff"/>
  <rect y="6.462" width="20" height="1.077" fill="#B22234"/>
  <rect y="7.538" width="20" height="1.077" fill="#fff"/>
  <rect y="8.615" width="20" height="1.077" fill="#B22234"/>
  <rect y="9.692" width="20" height="1.077" fill="#fff"/>
  <rect y="10.769" width="20" height="1.077" fill="#B22234"/>
  <rect y="11.846" width="20" height="1.077" fill="#fff"/>
  <rect width="8" height="7.538" fill="#3C3B6E"/>
  <g fill="#fff">
    <circle cx="1.2" cy="1" r="0.5"/>
    <circle cx="2.4" cy="1" r="0.5"/>
    <circle cx="3.6" cy="1" r="0.5"/>
    <circle cx="4.8" cy="1" r="0.5"/>
    <circle cx="6"   cy="1" r="0.5"/>
    <circle cx="1.8" cy="2" r="0.5"/>
    <circle cx="3"   cy="2" r="0.5"/>
    <circle cx="4.2" cy="2" r="0.5"/>
    <circle cx="5.4" cy="2" r="0.5"/>
    <circle cx="6.6" cy="2" r="0.5"/>
    <circle cx="1.2" cy="3" r="0.5"/>
    <circle cx="2.4" cy="3" r="0.5"/>
    <circle cx="3.6" cy="3" r="0.5"/>
    <circle cx="4.8" cy="3" r="0.5"/>
    <circle cx="6"   cy="3" r="0.5"/>
    <circle cx="1.8" cy="4" r="0.5"/>
    <circle cx="3"   cy="4" r="0.5"/>
    <circle cx="4.2" cy="4" r="0.5"/>
    <circle cx="5.4" cy="4" r="0.5"/>
    <circle cx="6.6" cy="4" r="0.5"/>
    <circle cx="1.2" cy="5" r="0.5"/>
    <circle cx="2.4" cy="5" r="0.5"/>
    <circle cx="3.6" cy="5" r="0.5"/>
    <circle cx="4.8" cy="5" r="0.5"/>
    <circle cx="6"   cy="5" r="0.5"/>
    <circle cx="1.8" cy="6" r="0.5"/>
    <circle cx="3"   cy="6" r="0.5"/>
    <circle cx="4.2" cy="6" r="0.5"/>
    <circle cx="5.4" cy="6" r="0.5"/>
    <circle cx="6.6" cy="6" r="0.5"/>
  </g>
</svg>
