<svg xmlns="http://www.w3.org/2000/svg" viewBox="0 0 20 14">
  <rect width="20" height="14" fill="#fff"/>
  <!-- Taeguk red half -->
  <path d="M10,3.8 A3.2,3.2 0 0,1 10,10.2 A1.6,1.6 0 0,1 10,7 A1.6,1.6 0 0,0 10,3.8 Z" fill="#CD2E3A"/>
  <!-- Taeguk blue half -->
  <path d="M10,3.8 A3.2,3.2 0 0,0 10,10.2 A1.6,1.6 0 0,0 10,7 A1.6,1.6 0 0,1 10,3.8 Z" fill="#003478"/>
  <!-- Top-left trigram (geon - 3 solid) -->
  <rect x="1.5" y="1.8" width="3.5" height="0.65" fill="#000"/>
  <rect x="1.5" y="2.8" width="3.5" height="0.65" fill="#000"/>
  <rect x="1.5" y="3.8" width="3.5" height="0.65" fill="#000"/>
  <!-- Top-right trigram (ri - broken, solid, broken) -->
  <rect x="15" y="1.8" width="1.5" height="0.65" fill="#000"/>
  <rect x="17" y="1.8" width="1.5" height="0.65" fill="#000"/>
  <rect x="15" y="2.8" width="3.5" height="0.65" fill="#000"/>
  <rect x="15" y="3.8" width="1.5" height="0.65" fill="#000"/>
  <rect x="17" y="3.8" width="1.5" height="0.65" fill="#000"/>
  <!-- Bottom-left trigram (gam - broken, broken, solid) -->
  <rect x="1.5" y="9.55" width="1.5" height="0.65" fill="#000"/>
  <rect x="3.5" y="9.55" width="1.5" height="0.65" fill="#000"/>
  <rect x="1.5" y="10.55" width="1.5" height="0.65" fill="#000"/>
  <rect x="3.5" y="10.55" width="1.5" height="0.65" fill="#000"/>
  <rect x="1.5" y="11.55" width="3.5" height="0.65" fill="#000"/>
  <!-- Bottom-right trigram (gon - solid, broken, broken) -->
  <rect x="15" y="9.55" width="3.5" height="0.65" fill="#000"/>
  <rect x="15" y="10.55" width="1.5" height="0.65" fill="#000"/>
  <rect x="17" y="10.55" width="1.5" height="0.65" fill="#000"/>
  <rect x="15" y="11.55" width="1.5" height="0.65" fill="#000"/>
  <rect x="17" y="11.55" width="1.5" height="0.65" fill="#000"/>
</svg>
