<svg xmlns="http://www.w3.org/2000/svg" viewBox="0 0 20 14">
  <rect width="20" height="14" fill="#DE2910"/>
  <!-- Large star -->
  <polygon points="4,1.5 4.673,3.572 6.854,3.572 5.09,4.856 5.763,6.928 4,5.644 2.237,6.928 2.91,4.856 1.146,3.572 3.327,3.572" fill="#FFDE00"/>
  <!-- Small stars -->
  <polygon points="8,0.8 8.35,1.877 9.476,1.877 8.563,2.545 8.913,3.622 8,2.955 7.087,3.622 7.437,2.545 6.524,1.877 7.65,1.877" fill="#FFDE00"/>
  <polygon points="10,2.5 10.35,3.577 11.476,3.577 10.563,4.245 10.913,5.322 10,4.655 9.087,5.322 9.437,4.245 8.524,3.577 9.65,3.577" fill="#FFDE00"/>
  <polygon points="10,5 10.35,6.077 11.476,6.077 10.563,6.745 10.913,7.822 10,7.155 9.087,7.822 9.437,6.745 8.524,6.077 9.65,6.077" fill="#FFDE00"/>
  <polygon points="8,6.8 8.35,7.877 9.476,7.877 8.563,8.545 8.913,9.622 8,8.955 7.087,9.622 7.437,8.545 6.524,7.877 7.65,7.877" fill="#FFDE00"/>
</svg>
